<?xml version="1.0" standalone="no"?>
<!DOCTYPE svg PUBLIC "-//W3C//DTD SVG 20010904//EN"
 "http://www.w3.org/TR/2001/REC-SVG-20010904/DTD/svg10.dtd">
<svg version="1.0" xmlns="http://www.w3.org/2000/svg"
 width="16.000000pt" height="16.000000pt" viewBox="0 0 16.000000 16.000000"
 preserveAspectRatio="xMidYMid meet">
<metadata>
Created by potrace 1.11, written by Peter Selinger 2001-2013
</metadata>
<g transform="translate(0.000000,16.000000) scale(0.014286,-0.014286)"
fill="#000000" stroke="none">
<path d="M0 560 l0 -560 560 0 560 0 0 560 0 560 -560 0 -560 0 0 -560z m540
320 c0 -5 -11 -10 -24 -10 -42 0 -47 -19 -44 -155 l3 -127 136 110 c75 61 139
119 143 128 8 21 -10 44 -35 44 -10 0 -21 5 -24 10 -4 6 37 10 116 10 121 0
136 -5 78 -25 -34 -11 -279 -202 -279 -217 0 -14 234 -301 275 -337 20 -17 45
-31 55 -31 11 0 20 -4 20 -10 0 -6 -62 -10 -165 -10 -91 0 -165 2 -165 5 0 3
11 10 25 15 15 6 25 17 25 29 0 22 -176 246 -194 246 -16 0 -21 -242 -5 -261
6 -8 22 -14 35 -14 13 0 24 -4 24 -10 0 -6 -59 -10 -157 -10 -106 0 -153 4
-143 10 8 5 21 10 29 10 8 0 23 7 33 17 17 15 18 37 18 276 0 228 -2 263 -17
279 -9 10 -23 18 -32 18 -9 0 -23 5 -31 10 -10 6 37 10 143 10 98 0 157 -4
157 -10z"/>
</g>
</svg>
